<svg width="40" height="40" viewBox="0 0 40 40" fill="none" xmlns="http://www.w3.org/2000/svg">
  <rect width="40" height="40" rx="8" fill="url(#paint0_linear)"/>
  <path d="M12 28V12h6c2.2 0 4 1.8 4 4 0 1.2-.6 2.2-1.4 2.8.8.6 1.4 1.6 1.4 2.8 0 2.2-1.8 4-4 4h-6z" fill="white"/>
  <path d="M16 16h2c.6 0 1 .4 1 1s-.4 1-1 1h-2v-2z" fill="url(#paint1_linear)"/>
  <path d="M16 22h2.5c.8 0 1.5.7 1.5 1.5s-.7 1.5-1.5 1.5H16v-3z" fill="url(#paint2_linear)"/>
  <defs>
    <linearGradient id="paint0_linear" x1="0" y1="0" x2="40" y2="40" gradientUnits="userSpaceOnUse">
      <stop stop-color="#3B82F6"/>
      <stop offset="1" stop-color="#8B5CF6"/>
    </linearGradient>
    <linearGradient id="paint1_linear" x1="16" y1="16" x2="20" y2="18" gradientUnits="userSpaceOnUse">
      <stop stop-color="#3B82F6" stop-opacity="0.8"/>
      <stop offset="1" stop-color="#8B5CF6" stop-opacity="0.6"/>
    </linearGradient>
    <linearGradient id="paint2_linear" x1="16" y1="22" x2="20" y2="25" gradientUnits="userSpaceOnUse">
      <stop stop-color="#3B82F6" stop-opacity="0.8"/>
      <stop offset="1" stop-color="#8B5CF6" stop-opacity="0.6"/>
    </linearGradient>
  </defs>
</svg>